<?xml version="1.0" encoding="UTF-8" standalone="no"?>
<!-- Created with Inkscape (http://www.inkscape.org/) -->

<svg
   xmlns:dc="http://purl.org/dc/elements/1.1/"
   xmlns:cc="http://creativecommons.org/ns#"
   xmlns:rdf="http://www.w3.org/1999/02/22-rdf-syntax-ns#"
   xmlns:svg="http://www.w3.org/2000/svg"
   xmlns="http://www.w3.org/2000/svg"
   xmlns:xlink="http://www.w3.org/1999/xlink"
   xmlns:sodipodi="http://sodipodi.sourceforge.net/DTD/sodipodi-0.dtd"
   xmlns:inkscape="http://www.inkscape.org/namespaces/inkscape"
   width="192"
   height="192"
   viewBox="0 0 57.150001 57.149997"
   version="1.1"
   id="svg8"
   inkscape:version="0.92.1 r"
   sodipodi:docname="insect-favicon.svg"
   inkscape:export-filename="/home/shark/Dropbox/Informatik/purescript/insect/media/insect-196x196.png"
   inkscape:export-xdpi="98"
   inkscape:export-ydpi="98">
  <defs
     id="defs2">
    <linearGradient
       inkscape:collect="always"
       id="linearGradient6015">
      <stop
         style="stop-color:#f72d4b;stop-opacity:1"
         offset="0"
         id="stop6009" />
      <stop
         id="stop6011"
         offset="0.31170031"
         style="stop-color:#b1076f;stop-opacity:1" />
      <stop
         style="stop-color:#078af4;stop-opacity:1"
         offset="1"
         id="stop6013" />
    </linearGradient>
    <linearGradient
       inkscape:collect="always"
       xlink:href="#linearGradient6015"
       id="linearGradient4733"
       gradientUnits="userSpaceOnUse"
       gradientTransform="matrix(0.09407842,0,0,0.09407842,-16454.439,2288.3277)"
       x1="-2996.7202"
       y1="4654.9209"
       x2="-1559.0183"
       y2="4200.6133" />
    <linearGradient
       inkscape:collect="always"
       xlink:href="#linearGradient6015"
       id="linearGradient4735"
       gradientUnits="userSpaceOnUse"
       gradientTransform="matrix(0.02489158,0,0,0.02489158,-16447.602,2300.0458)"
       x1="-12403.771"
       y1="16503.461"
       x2="-12550.984"
       y2="9437.1182" />
  </defs>
  <sodipodi:namedview
     id="base"
     pagecolor="#ecf0f1"
     bordercolor="#666666"
     borderopacity="1.0"
     inkscape:pageopacity="0"
     inkscape:pageshadow="2"
     inkscape:zoom="1.28"
     inkscape:cx="123.35711"
     inkscape:cy="32.239565"
     inkscape:document-units="mm"
     inkscape:current-layer="g6297"
     showgrid="false"
     inkscape:window-width="1920"
     inkscape:window-height="1176"
     inkscape:window-x="1920"
     inkscape:window-y="0"
     inkscape:window-maximized="0"
     showborder="true"
     inkscape:snap-global="false"
     showguides="false"
     inkscape:guide-bbox="true"
     fit-margin-top="5"
     fit-margin-left="5"
     fit-margin-right="5"
     fit-margin-bottom="5"
     inkscape:pagecheckerboard="false"
     units="px">
    <sodipodi:guide
       position="-39.951962,3021.5609"
       orientation="0,1"
       id="guide4507"
       inkscape:locked="false" />
    <sodipodi:guide
       position="-137.11484,3100.2277"
       orientation="0,1"
       id="guide4509"
       inkscape:locked="false" />
  </sodipodi:namedview>
  <metadata
     id="metadata5">
    <rdf:RDF>
      <cc:Work
         rdf:about="">
        <dc:format>image/svg+xml</dc:format>
        <dc:type
           rdf:resource="http://purl.org/dc/dcmitype/StillImage" />
        <dc:title></dc:title>
      </cc:Work>
    </rdf:RDF>
  </metadata>
  <g
     inkscape:label="logo"
     inkscape:groupmode="layer"
     id="layer1"
     transform="translate(-212.55597,-2905.2003)">
    <flowRoot
       xml:space="preserve"
       id="flowRoot4625"
       style="color:#000000;font-style:normal;font-variant:normal;font-weight:normal;font-stretch:normal;line-height:25px;font-family:'Bitstream Vera Sans';-inkscape-font-specification:'Bitstream Vera Sans';letter-spacing:0px;word-spacing:0px;clip-rule:nonzero;display:inline;overflow:visible;visibility:visible;opacity:1;isolation:auto;mix-blend-mode:normal;color-interpolation:sRGB;color-interpolation-filters:linearRGB;solid-color:#000000;solid-opacity:1;fill:#000000;fill-opacity:1;fill-rule:nonzero;stroke:none;stroke-width:1px;stroke-linecap:butt;stroke-linejoin:miter;stroke-miterlimit:4;stroke-dasharray:none;stroke-dashoffset:0;stroke-opacity:1;color-rendering:auto;image-rendering:auto;shape-rendering:auto;text-rendering:auto;enable-background:accumulate"
       transform="scale(0.26458333)"><flowRegion
         id="flowRegion4627"><rect
           id="rect4629"
           width="989.94946"
           height="56.568542"
           x="1882.9243"
           y="827.55511" /></flowRegion><flowPara
         id="flowPara4631" /></flowRoot>    <g
       transform="matrix(0.26458333,0,0,0.26458333,-1671.482,5468.0976)"
       id="g4839" />
    <g
       transform="matrix(0.26458333,0,0,0.26458333,-1671.482,5468.0976)"
       id="g4841" />
    <g
       transform="matrix(0.26458333,0,0,0.26458333,-1671.482,5468.0976)"
       id="g4843" />
    <g
       transform="matrix(0.26458333,0,0,0.26458333,-1671.482,5468.0976)"
       id="g4845" />
    <g
       transform="matrix(0.26458333,0,0,0.26458333,-1671.482,5468.0976)"
       id="g4847" />
    <g
       transform="matrix(0.26458333,0,0,0.26458333,-1671.482,5468.0976)"
       id="g4849" />
    <g
       transform="matrix(0.26458333,0,0,0.26458333,-1671.482,5468.0976)"
       id="g4851" />
    <g
       transform="matrix(0.26458333,0,0,0.26458333,-1671.482,5468.0976)"
       id="g4853" />
    <g
       transform="matrix(0.26458333,0,0,0.26458333,-1671.482,5468.0976)"
       id="g4855" />
    <g
       transform="matrix(0.26458333,0,0,0.26458333,-1671.482,5468.0976)"
       id="g4857" />
    <g
       transform="matrix(0.26458333,0,0,0.26458333,-1671.482,5468.0976)"
       id="g4859" />
    <g
       transform="matrix(0.26458333,0,0,0.26458333,-1671.482,5468.0976)"
       id="g4861" />
    <g
       transform="matrix(0.26458333,0,0,0.26458333,-1671.482,5468.0976)"
       id="g4863" />
    <g
       transform="matrix(0.26458333,0,0,0.26458333,-1671.482,5468.0976)"
       id="g4865" />
    <g
       transform="matrix(0.26458333,0,0,0.26458333,-1671.482,5468.0976)"
       id="g4867" />
    <g
       id="g6297"
       transform="matrix(0.27096735,0,0,0.27096735,156.04521,2132.9182)">
      <g
         transform="matrix(-0.42192027,0.58342223,0.58342223,0.42192027,-8294.8792,11588.273)"
         id="g6071">
        <path
           style="opacity:1;fill:url(#linearGradient4733);fill-opacity:1;stroke:#ffffff;stroke-width:3.61613226;stroke-linecap:butt;stroke-linejoin:miter;stroke-miterlimit:4;stroke-dasharray:none;stroke-dashoffset:0;stroke-opacity:0"
           d="m -16670.852,2763.4152 c -16.3,-1.4311 -37.895,-7.4178 -51.413,-14.2525 -8.155,-4.124 -17.496,-9.5735 -22.327,-13.0253 l -3.088,-2.206 0.201,-2.4221 c 0.287,-3.4573 2.792,-8.2186 10.199,-19.3823 8.26,-12.4489 9.631,-14.2576 23.313,-30.7473 12.318,-14.8473 13.878,-16.3687 21.395,-20.8632 17.59,-10.518 35.173,-11.4947 48.418,-2.6897 5.093,3.386 9.665,8.6002 12.292,14.0181 4.284,8.836 10.321,29.0433 12.71,42.5424 0.86,4.8613 1.038,7.4374 1.025,14.9163 -0.02,9.8641 -0.627,13.4656 -3.163,18.667 -1.621,3.3259 -5.486,7.3489 -8.716,9.0702 -3.411,1.818 -8.857,3.2261 -12.479,3.2261 -1.662,0 -3.878,0.3786 -5.465,0.9335 -5.933,2.0741 -14.769,2.9286 -22.902,2.2148 z"
           id="path6023"
           inkscape:connector-curvature="0" />
        <path
           style="opacity:1;fill:url(#linearGradient4735);fill-opacity:1;stroke:#ffffff;stroke-width:1.7601006;stroke-linecap:butt;stroke-linejoin:miter;stroke-miterlimit:4;stroke-dasharray:none;stroke-dashoffset:0;stroke-opacity:0"
           d="m -16763.593,2726.1517 c -1.583,-1.8075 -4.938,-32.5076 -6.528,-39.2769 -11.029,-46.9448 -17.561,-83.5036 -19.662,-114.6954 -0.358,-5.3012 -1.602,-23.2314 -1.245,-27.1416 1.123,-12.3057 3.317,-19.8129 6.809,-25.2103 3.629,-5.6098 14.242,-10.2452 18.969,-7.9179 4.293,2.1131 10.662,9.8218 14.369,19.1951 2.47,6.2435 4.12,11.9259 7.307,24.0974 1.98,7.561 4.723,9.8665 6.043,12.0396 15.299,19.5183 29.721,25.944 47.625,46.0566 5.421,10.559 8.647,19.0396 2.348,28.1929 -4.611,6.9892 -15.108,19.0656 -20.092,24.1956 -13.159,25.9004 -11.931,13.2756 -19.703,23.5738 -2.284,3.0252 -4.712,6.4126 -6.158,8.2882 -7.137,9.2601 -10.744,18.4583 -13.31,24.2483 -1.641,3.7044 -5.093,11.1342 -5.228,11.2835 -8.714,-5.5279 -7.808,-2.464 -11.544,-6.9289 z"
           id="path6025"
           inkscape:connector-curvature="0"
           sodipodi:nodetypes="ccscccssccccccccc" />
        <path
           style="fill:#000000;fill-opacity:1;stroke-width:8.25367451"
           id="path6027"
           d="m -16624.127,2672.9725 c -4.688,-12.6529 -15.368,-22.4252 -28.566,-26.1311 -10.92,-3.0622 -22.879,-1.8406 -34.946,3.384 6.314,-8.6416 9.913,-15.2611 10.144,-20.2958 l 0.01,-0.3467 c 0.207,-12.1824 -17.836,-28.1863 -35.284,-43.6784 -10.582,-9.3927 -22.574,-20.0317 -23.944,-24.9344 -0.479,-1.692 -0.991,-3.6894 -1.552,-5.9261 -4.506,-17.6051 -12.05,-47.046 -30.126,-48.9113 -17.39,-0.3136 -26.494,16.1029 -27.072,48.771 -0.635,35.5321 8.906,92.4246 27.576,164.8671 -0.702,-0.3714 -1.362,-0.7098 -1.932,-1.0151 0.933,-3.2933 0.396,-6.3636 -1.7,-7.775 -2.278,-1.5517 -5.736,-0.652 -8.633,1.9066 -4.416,-5.0678 -7.132,-13.0573 -9.764,-20.8241 -3.5,-10.4161 -4.162,-20.7115 -14.506,-26.0716 -0.86,-0.7304 -1.923,-1.2353 -3.147,-1.2461 -2.815,-0.054 -5.135,2.1806 -5.178,5.0057 -0.04,2.8358 2.181,5.1453 5.006,5.1882 2.234,0.032 4.193,-2.163 4.913,-4.1502 6.821,5.7253 7.109,13.2267 10.138,22.2067 2.584,7.6677 5.241,15.55 9.624,21.0386 -12.257,-2.0799 -18.921,0.4868 -25.895,0.099 -8.749,-0.5118 -13.702,-0.7047 -18.969,-4.7023 0.76,-0.9754 2.48,-2.9979 2.493,-4.3153 0.06,-3.3316 -2.584,-6.0678 -5.916,-6.1184 -3.293,-0.076 -6.042,2.5715 -6.106,5.8904 -0.05,2.9008 2.015,5.2443 4.751,5.865 13.883,7.0304 13.785,5.7411 23.59,6.3272 6.933,0.3879 13.564,-2.1788 25.755,-0.099 -2.352,4.3002 -2.237,8.914 0.487,10.7628 1.964,1.3454 4.812,0.8501 7.42,-0.9657 3.12,3.3592 7.899,7.6462 11.34,11.9133 6.339,7.8823 44.912,31.4581 48.829,30.5519 1.849,-0.7429 -1.997,-6.2068 -7.973,-12.9913 1.692,0.8584 3.244,1.6094 4.565,2.2367 1.939,0.7924 47.425,18.8597 73.424,8.6581 21.699,-0.4457 33.395,-13.0903 33.824,-36.6298 0.247,-15.0051 -3.888,-33.8318 -12.686,-57.5446 z m -163.489,-117.9285 c 0.495,-27.4765 6.909,-41.2932 18.736,-41.095 12.315,1.2793 19.537,29.4903 23.011,43.0511 0.586,2.278 1.106,4.3415 1.585,6.0747 1.89,6.7846 11.225,15.3189 26.305,28.6981 13.841,12.2814 32.799,29.1024 32.659,37.6697 l 3.921,0.066 -3.929,0.066 c -0.256,5.7528 -10.457,18.9504 -21.633,32.4782 -5.216,4.6716 -15.533,17.1924 -25.297,30.5303 -8.98,11.3488 -16.475,22.0621 -19.859,30.8192 -0.759,1.5187 -1.403,2.9053 -1.89,4.1599 -1.51,-0.8831 -2.979,-1.7415 -4.399,-2.5669 -19.759,-75.2074 -29.853,-133.9654 -29.21,-169.9514 z m 141.526,204.2537 h -0.768 l -0.717,0.3054 c -22.913,9.5907 -67.747,-8.2207 -67.962,-8.2867 -12.512,-6.0252 -26.552,-14.1551 -30.736,-18.2324 0.05,-0.5778 0.09,-1.172 0.06,-1.8158 0.165,-1.6012 0.693,-3.4418 1.477,-5.4227 3.541,-6.6607 10.317,-16.9777 17.737,-27.2701 5.613,-7.1312 11.811,-14.5182 17.746,-21.5751 2.773,-3.3015 5.373,-6.3966 7.833,-9.3762 15.929,-12.5043 32.469,-17.2006 46.6,-13.2388 10.795,3.029 19.511,10.9938 23.333,21.2944 3.103,8.394 12.554,33.8731 12.19,54.6806 -0.346,19.619 -8.864,28.8053 -26.791,28.9374 z"
           inkscape:connector-curvature="0"
           sodipodi:nodetypes="cccccccccccccccccccccccccccccccccccccccccccccccccccccccccccccccccccccc" />
        <path
           id="path6029"
           d="m -16771.959,2575.4801 c 7.19,3.9287 18.621,1.6342 19.603,-7.5108 0.982,-8.1629 -4.903,-16.9861 -8.493,-23.2011 -2.286,-3.9205 3.425,-23.8531 -8.906,-22.4665 -12.331,1.4031 -10.045,27.6993 -9.393,35.2267 0.331,6.5369 0.983,14.6998 7.189,17.9517 z"
           inkscape:connector-curvature="0"
           style="stroke-width:8.25367451" />
        <path
           id="path6031"
           d="m -16732.423,2638.5547 c -6.868,17.6463 -15.36,35.2762 -20.915,53.5828 -0.974,3.2685 12.1,-0.6437 17.646,-7.8492 5.233,-6.1903 41.425,-44.2149 37.917,-57.165 -3.524,-12.95 -15.351,-16.334 -24.843,-8.8231 -5.885,4.5808 -7.189,13.3957 -9.805,20.2545 z"
           inkscape:connector-curvature="0"
           style="stroke-width:8.25367451" />
        <path
           id="path6033"
           d="m -16753.99,2654.2284 c 1.304,-9.8053 0.652,-20.2545 0.33,-29.7297 0,-9.8054 -0.652,-18.9587 -4.573,-28.0955 -3.928,-9.1533 -17.324,-5.8849 -17.324,-5.8849 0,0 11.44,74.1593 12.413,90.1796 6.868,-2.5999 8.502,-20.2545 9.154,-26.4695 z"
           inkscape:connector-curvature="0"
           style="stroke-width:8.25367451" />
        <path
           id="path6035"
           d="m -16746.372,2593.5639 c 8.493,-3.9205 8.658,-12.1742 -1.312,-14.3779 -9.962,-2.2037 -10.128,19.2806 1.312,14.3779 z"
           inkscape:connector-curvature="0"
           style="stroke-width:8.25367451" />
        <path
           id="path6037"
           d="m -16729.023,2612.762 c 6.908,0 4.465,-6.3306 4.465,-6.3306 l -2.162,-2.0139 c -6.05,-3.7307 -11.794,8.6498 -2.303,8.3445 z"
           inkscape:connector-curvature="0"
           style="stroke-width:8.25367451" />
        <path
           id="path6039"
           d="m -16730.921,2594.3562 c -4.391,-2.7154 -8.576,6.2728 -1.676,6.0582 5.019,0 3.244,-4.5972 3.244,-4.5972 z"
           inkscape:connector-curvature="0"
           style="stroke-width:8.25367451" />
        <path
           id="path6041"
           d="m -16717.385,2612.7702 c 5.018,0 3.243,-4.5973 3.243,-4.5973 l -1.56,-1.4774 c -4.398,-2.7072 -8.575,6.281 -1.683,6.0747 z"
           inkscape:connector-curvature="0"
           style="stroke-width:8.25367451" />
        <path
           id="path6043"
           d="m -16734.677,2585.9375 c 3.062,0 1.981,-2.8062 1.981,-2.8062 l -0.957,-0.8914 c -2.674,-1.659 -5.233,3.8379 -1.024,3.6976 z"
           inkscape:connector-curvature="0"
           style="stroke-width:8.25367451" />
        <path
           id="path6045"
           d="m -16730.418,2589.9571 c 3.062,0 1.973,-2.8063 1.973,-2.8063 l -0.949,-0.8997 c -2.691,-1.6589 -5.233,3.8297 -1.024,3.706 z"
           inkscape:connector-curvature="0"
           style="stroke-width:8.25367451" />
        <path
           id="path6047"
           d="m -16726.027,2593.9766 c 3.063,0 1.973,-2.8145 1.973,-2.8145 l -0.949,-0.8914 c -2.674,-1.659 -5.233,3.8214 -1.024,3.7059 z"
           inkscape:connector-curvature="0"
           style="stroke-width:8.25367451" />
        <path
           id="path6049"
           d="m -16720.315,2598.3015 c 3.062,0 1.981,-2.8062 1.981,-2.8062 l -0.958,-0.8914 c -2.682,-1.6425 -5.233,3.8462 -1.023,3.6976 z"
           inkscape:connector-curvature="0"
           style="stroke-width:8.25367451" />
        <path
           id="path6051"
           d="m -16725.433,2602.3293 c 3.062,0 1.981,-2.8145 1.981,-2.8145 l -0.957,-0.8914 c -2.683,-1.659 -5.233,3.8215 -1.024,3.7059 z"
           inkscape:connector-curvature="0"
           style="stroke-width:8.25367451" />
        <path
           id="path6053"
           d="m -16736.872,2591.9462 c 3.062,0 1.973,-2.798 1.973,-2.798 l -0.958,-0.8914 c -2.674,-1.6508 -5.216,3.8297 -1.015,3.6894 z"
           inkscape:connector-curvature="0"
           style="stroke-width:8.25367451" />
        <path
           id="path6055"
           d="m -16742.468,2602.5439 c -3.269,-0.9905 -3.995,16.7385 -4.325,21.3192 -0.652,5.2246 -0.982,11.4314 -0.652,16.6642 6.537,-4.2506 8.163,-16.6642 10.788,-23.5312 1.295,-3.9288 0.06,-13.4865 -5.811,-14.4522 z"
           inkscape:connector-curvature="0"
           style="stroke-width:8.25367451" />
        <path
           id="path6057"
           d="m -16642.896,2686.9047 c 1.313,-4.5808 -3.516,-16.788 -14.7,-20.9148 -11.183,-4.1104 -16.664,-1.9479 -24.513,1.6425 -15.666,6.5286 -30.39,22.2106 -40.187,35.6063 -4.573,6.2068 -7.833,13.3957 -12.413,19.9244 14.377,-6.5287 30.398,-4.5808 45.419,-8.8149 14.37,-3.9123 41.5,-10.7628 46.394,-27.4435 z"
           inkscape:connector-curvature="0"
           style="stroke-width:8.25367451" />
        <path
           id="path6059"
           d="m -16635.055,2688.217 c -5.992,-4.4487 -11.431,30.7285 -19.602,37.579 -8.163,6.8671 -18.67,8.2124 -25.529,12.7849 -4.903,3.6069 -8.774,8.4518 -2.583,13.3628 7.189,5.5629 14.056,4.5642 22.871,4.2423 7.841,-0.3218 18.768,-3.45 25.487,-5.8683 12.785,-5.7611 7.915,-55.7453 -0.644,-62.1007 z"
           inkscape:connector-curvature="0"
           style="stroke-width:8.25367451" />
        <path
           id="path6061"
           d="m -16657.868,2715.1735 c -2.418,-3.9947 -35.004,6.0417 -49.373,9.3184 -4.911,0.9822 -28.756,1.5187 -25.488,8.6912 2.608,5.8931 21.889,13.5277 27.774,12.5456 7.18,-1.3124 49.489,-26.5521 47.087,-30.5552 z"
           inkscape:connector-curvature="0"
           style="stroke-width:8.25367451" />
        <path
           sodipodi:nodetypes="cac"
           inkscape:connector-curvature="0"
           id="path6063"
           d="m -16764.712,2736.1111 c 0,0 -0.173,7.6946 -0.815,11.4752 -0.705,4.1533 -0.958,12.1041 -3.316,12.1955"
           style="fill:none;fill-rule:evenodd;stroke:#000000;stroke-width:2.48915815;stroke-linecap:butt;stroke-linejoin:miter;stroke-miterlimit:4;stroke-dasharray:none;stroke-opacity:1" />
        <path
           sodipodi:nodetypes="csc"
           inkscape:connector-curvature="0"
           id="path6065"
           d="m -16755.55,2743.6046 c -13.433,-0.6599 -16.739,-0.4504 -16.602,6.6417 0.06,3.1027 -1.113,6.4396 -1.113,6.4396"
           style="fill:none;fill-rule:evenodd;stroke:#000000;stroke-width:2.48915815;stroke-linecap:butt;stroke-linejoin:miter;stroke-miterlimit:4;stroke-dasharray:none;stroke-opacity:1" />
        <path
           inkscape:transform-center-y="4.1553339"
           inkscape:transform-center-x="6.0507461"
           style="fill:none;fill-rule:evenodd;stroke:#000000;stroke-width:2.43702245;stroke-linecap:butt;stroke-linejoin:miter;stroke-miterlimit:4;stroke-dasharray:none;stroke-opacity:1"
           d="m -16749.559,2746.4269 c 0,0 2.513,6.9749 3.377,10.572 1.883,7.8394 5.984,22.7081 3.908,23.869"
           id="path6067"
           inkscape:connector-curvature="0"
           sodipodi:nodetypes="cac" />
        <path
           sodipodi:nodetypes="cac"
           inkscape:connector-curvature="0"
           id="path6069"
           d="m -16749.918,2743.3152 c 0,0 0.214,7.4009 0.08,11.0978 -0.227,6.1929 0.835,18.0404 -1.492,18.5313"
           style="fill:none;fill-rule:evenodd;stroke:#000000;stroke-width:2.43702245;stroke-linecap:butt;stroke-linejoin:miter;stroke-miterlimit:4;stroke-dasharray:none;stroke-opacity:1"
           inkscape:transform-center-x="6.9332847"
           inkscape:transform-center-y="2.1231972" />
      </g>
    </g>
  </g>
</svg>
