<?xml version="1.0" encoding="UTF-8" standalone="no"?>
<!-- Generator: Adobe Illustrator 19.0.0, SVG Export Plug-In . SVG Version: 6.00 Build 0)  -->

<svg
   xmlns:dc="http://purl.org/dc/elements/1.1/"
   xmlns:cc="http://creativecommons.org/ns#"
   xmlns:rdf="http://www.w3.org/1999/02/22-rdf-syntax-ns#"
   xmlns:svg="http://www.w3.org/2000/svg"
   xmlns="http://www.w3.org/2000/svg"
   xmlns:sodipodi="http://sodipodi.sourceforge.net/DTD/sodipodi-0.dtd"
   xmlns:inkscape="http://www.inkscape.org/namespaces/inkscape"
   version="1.1"
   id="Layer_1"
   x="0px"
   y="0px"
   viewBox="0 0 128 128"
   xml:space="preserve"
   sodipodi:docname="insect-logo.svg"
   width="128"
   height="128"
   inkscape:version="0.92.1 r"
   inkscape:export-filename="/home/shark/Informatik/purescript/insect/media/insect-logo.png"
   inkscape:export-xdpi="48"
   inkscape:export-ydpi="48"><metadata
     id="metadata4704"><rdf:RDF><cc:Work
         rdf:about=""><dc:format>image/svg+xml</dc:format><dc:type
           rdf:resource="http://purl.org/dc/dcmitype/StillImage" /><dc:title></dc:title></cc:Work></rdf:RDF></metadata><defs
     id="defs4702" /><sodipodi:namedview
     pagecolor="#ffffff"
     bordercolor="#666666"
     borderopacity="1"
     objecttolerance="10"
     gridtolerance="10"
     guidetolerance="10"
     inkscape:pageopacity="0"
     inkscape:pageshadow="2"
     inkscape:window-width="1920"
     inkscape:window-height="1176"
     id="namedview4700"
     showgrid="false"
     showguides="true"
     inkscape:zoom="1.2885364"
     inkscape:cx="320.84357"
     inkscape:cy="-78.594576"
     inkscape:window-x="1920"
     inkscape:window-y="0"
     inkscape:window-maximized="0"
     inkscape:current-layer="Layer_1"
     showborder="false"><inkscape:grid
       type="xygrid"
       id="grid4800"
       spacingx="4"
       spacingy="4"
       empspacing="4"
       enabled="true"
       visible="true" /></sodipodi:namedview><g
     id="g4613"
     transform="matrix(0.22723038,0,0,0.22723038,253.00691,-523.78269)"><path
       style="fill:#e7eced"
       d="m 331.487,204.11 c 15.433,0 27.959,12.525 27.959,27.958 0,15.433 -12.526,27.958 -27.959,27.958 -15.433,0 -27.958,-12.525 -27.958,-27.958 0,-15.433 12.525,-27.958 27.958,-27.958 z"
       id="path4605"
       inkscape:connector-curvature="0" /><path
       style="fill:#e7eced"
       d="m 331.487,327.127 c 15.433,0 27.959,12.526 27.959,27.958 0,15.433 -12.526,27.959 -27.959,27.959 -15.433,0 -27.958,-12.526 -27.958,-27.959 0,-15.434 12.525,-27.958 27.958,-27.958 z"
       id="path4607"
       inkscape:connector-curvature="0" /><path
       style="fill:#e7eced"
       d="m 191.695,349.493 c 15.433,0 27.958,12.525 27.958,27.958 0,15.433 -12.525,27.959 -27.958,27.959 -15.433,0 -27.958,-12.526 -27.958,-27.959 0.001,-15.433 12.525,-27.958 27.958,-27.958 z"
       id="path4609"
       inkscape:connector-curvature="0" /><path
       style="fill:#e7eced"
       d="m 169.329,232.069 c 15.433,0 27.958,12.525 27.958,27.958 0,15.433 -12.525,27.959 -27.958,27.959 -15.433,0 -27.959,-12.526 -27.959,-27.959 0,-15.434 12.526,-27.958 27.959,-27.958 z"
       id="path4611"
       inkscape:connector-curvature="0" /></g><path
     style="fill:#546a79;stroke-width:0.22723038"
     d="m 311.81321,-426.57897 10.85094,10.85093 c -3.43073,1.21977 -7.08982,1.85488 -10.85094,1.85488 -3.76089,0 -7.4202,-0.63534 -10.85093,-1.85488 z"
     id="path4615"
     inkscape:connector-curvature="0" /><g
     id="g4621"
     transform="matrix(0.22723038,0,0,0.22723038,253.00691,-523.78269)"><path
       style="fill:#dd352e"
       d="m 331.487,204.11 c -15.433,0 -27.958,12.525 -27.958,27.958 0,15.433 12.526,27.958 27.958,27.958 15.433,0 27.959,-12.525 27.959,-27.958 0,-15.433 -12.526,-27.958 -27.959,-27.958 z m 95.059,85.887 c -0.447,46.299 -14.65,88.684 -38.135,122.01 -20.912,29.86 -49.318,52.338 -81.862,63.521 L 258.796,427.775 V 170.558 h 134.2 c 5.256,8.163 9.842,16.663 13.979,25.722 12.526,27.288 19.571,58.601 19.571,91.703 0,0.672 0,1.344 0,2.014 z m -67.101,65.087 c 0,-15.433 -12.526,-27.958 -27.959,-27.958 -15.433,0 -27.958,12.526 -27.958,27.958 0,15.433 12.526,27.959 27.958,27.959 15.434,0 27.959,-12.526 27.959,-27.959 z"
       id="path4617"
       inkscape:connector-curvature="0" /><path
       style="fill:#dd352e"
       d="m 258.796,170.559 v 257.217 l -47.753,47.753 C 141.707,451.596 91.046,376.669 91.046,287.985 c 0,-44.063 12.526,-84.657 33.55,-117.425 h 134.2 z m -39.142,206.892 c 0,-15.433 -12.525,-27.958 -27.958,-27.958 -15.433,0 -27.958,12.525 -27.958,27.958 0,15.433 12.525,27.959 27.958,27.959 15.433,0 27.958,-12.526 27.958,-27.959 z M 197.287,260.026 c 0,-15.433 -12.525,-27.958 -27.958,-27.958 -15.433,0 -27.959,12.525 -27.959,27.958 0,15.433 12.526,27.959 27.959,27.959 15.433,0 27.958,-12.526 27.958,-27.959 z"
       id="path4619"
       inkscape:connector-curvature="0" /></g><path
     style="fill:#bb2d23;stroke-width:0.22723038"
     d="m 296.58128,-431.6628 c -0.005,0 -0.0102,0.002 -0.0152,0.002 -3.50685,0 -6.35291,-2.84629 -6.35291,-6.35313 0,-1.50904 0.54876,-2.87697 1.42882,-3.96745 -1.72468,-5.06837 -2.69927,-10.57893 -2.69927,-16.36217 0,-0.17747 0.0168,-0.34971 0.0186,-0.52672 -2.25163,-0.97732 -3.83043,-3.21645 -3.83043,-5.82619 0,-3.18145 2.34979,-5.79483 5.40286,-6.25724 1.30249,-5.13018 3.34847,-9.8893 6.03251,-14.07238 H 281.3191 c -4.77728,7.44566 -7.62357,16.6703 -7.62357,26.68253 0,20.15169 11.51149,37.17738 27.26696,42.61569 l 5.35923,-5.35923 c -3.75021,-2.84401 -7.05687,-6.41426 -9.74046,-10.5753 z"
     id="path4623"
     inkscape:connector-curvature="0" /><g
     id="g4629"
     transform="matrix(0.22723038,0,0,0.22723038,253.00691,-523.78269)"><path
       style="fill:#afb6bb"
       d="m 334.06,56.154 c -5.032,-5.032 -8.163,-12.078 -8.163,-19.794 0,-15.433 12.525,-27.958 27.958,-27.958 15.433,0 27.959,12.526 27.959,27.958 0,15.433 -12.526,27.959 -27.959,27.959 -7.718,0 -14.763,-3.131 -19.795,-8.165 z"
       id="path4625"
       inkscape:connector-curvature="0" /><path
       style="fill:#afb6bb"
       d="m 183.532,56.154 c -5.032,5.032 -12.078,8.163 -19.794,8.163 -15.433,0 -27.958,-12.526 -27.958,-27.959 0,-15.433 12.526,-27.958 27.958,-27.958 15.433,0 27.958,12.526 27.958,27.958 -0.001,7.718 -3.132,14.764 -8.164,19.796 z"
       id="path4627"
       inkscape:connector-curvature="0" /></g><path
     style="fill:#546a79;stroke-width:0.22723038"
     d="m 319.74151,-501.84882 c 9.17374,2.26163 17.12772,8.38572 22.56579,16.82278 h -30.49431 -30.49432 c 5.4383,-8.43661 13.39205,-14.56092 22.56557,-16.82278 2.56656,-0.63533 5.20925,-0.9655 7.92852,-0.9655 2.71927,0 5.36218,0.33017 7.92875,0.9655 z"
     id="path4631"
     inkscape:connector-curvature="0" /><path
     style="fill:#3f525e;stroke-width:0.22723038"
     d="m 320.70724,-501.55592 c -0.32449,-0.0907 -0.63829,-0.21223 -0.9655,-0.29335 -2.5668,-0.63534 -5.20926,-0.9655 -7.92853,-0.9655 -2.71926,0 -5.36195,0.33039 -7.92852,0.9655 -9.17374,2.26163 -17.12749,8.38571 -22.56557,16.82278 h 17.78828 c 5.2438,-8.13553 12.83965,-14.08465 21.59984,-16.52943 z"
     id="path4633"
     inkscape:connector-curvature="0" /><path
     d="m 351.8403,-457.88655 v -0.45741 c 0,-7.03528 -1.38338,-13.99558 -4.00698,-20.23214 l 10.36011,-8.05691 v -17.45221 h -3.81838 v 15.58301 l -8.20188,6.36859 c -0.7035,-1.36952 -1.45041,-2.66859 -2.26071,-3.92722 -5.82937,-9.04377 -14.25121,-15.3092 -23.71172,-17.6415 -5.47784,-1.35611 -11.29926,-1.3552 -16.77278,-2.2e-4 -9.46233,2.33274 -17.88394,8.59817 -23.7158,17.64512 -4.95317,7.71993 -7.67403,16.81119 -7.90739,26.36964 l -13.99489,5.08905 v 15.31396 h 3.81815 v -12.63923 l 10.22514,-3.7184 c 0.44901,9.15147 3.17963,17.80236 7.9667,25.16463 5.1204,7.87535 12.4079,13.75448 20.50276,16.54828 3.66795,1.30407 7.53405,1.96554 11.49058,1.96554 3.95631,0 7.82241,-0.66124 11.47128,-1.9585 7.04118,-2.41955 13.29388,-7.00642 18.19888,-13.32184 l 8.28891,8.28891 -8.81473,8.81473 2.70018,2.69995 11.51445,-11.51468 -11.44105,-11.4415 c 5.21244,-7.95579 8.01191,-17.41766 8.10917,-27.48965 z m -47.49683,-42.1092 c 2.43864,-0.60376 4.95203,-0.90984 7.46997,-0.90984 2.51771,0 5.03088,0.30608 7.47156,0.91007 7.4552,1.83784 14.21531,6.42607 19.33913,13.05984 h -53.6216 c 5.12404,-6.63377 11.88437,-11.22177 19.34094,-13.06007 z m -21.32239,67.43653 c -4.85204,-7.46225 -7.41657,-16.37854 -7.41657,-25.78474 0,-8.95583 2.34048,-17.49788 6.77374,-24.77311 h 27.52577 v 55.74756 l -9.42847,9.42824 c -6.86735,-2.66495 -13.03211,-7.81627 -17.45447,-14.61795 z m 21.55962,15.91271 7.23251,-7.23229 7.23297,7.23297 c -2.34865,0.56967 -4.76911,0.86371 -7.23251,0.86371 -2.46182,0 -4.88068,-0.29381 -7.23297,-0.86439 z m 18.5704,-1.29476 -9.4287,-9.42869 v -55.74711 h 27.52624 c 0.90369,1.48313 1.72627,3.03852 2.49817,4.72889 l 0.002,0.003 c 2.79539,6.08977 4.27307,13.02007 4.27307,20.04126 v 0.43901 c -0.095,9.84385 -2.97104,19.05713 -8.32004,26.64754 -4.36783,6.23633 -10.06608,10.81571 -16.55033,13.3157 z"
     id="path4635"
     inkscape:connector-curvature="0"
     style="stroke-width:0.22723038" /><path
     d="m 327.46121,-504.43379 2.08324,-3.77657 c 1.17615,0.6217 2.49568,0.95187 3.8686,0.95187 4.55574,0 8.2621,-3.70636 8.2621,-8.26233 0,-4.55597 -3.70636,-8.26187 -8.26187,-8.26187 -4.55552,0 -8.2621,3.70636 -8.2621,8.2621 0,1.71173 0.51445,3.34029 1.46632,4.71094 l -2.49953,4.53166 z m 5.95207,-15.53052 c 2.45022,0 4.44372,1.9935 4.44372,4.44372 0,2.45023 -1.9935,4.44395 -4.44372,4.44395 -1.17683,0 -2.32434,-0.47219 -3.1476,-1.29567 -0.82348,-0.82348 -1.29589,-1.97077 -1.29589,-3.14782 -2.3e-4,-2.45068 1.99326,-4.44418 4.44349,-4.44418 z"
     id="path4637"
     inkscape:connector-curvature="0"
     style="stroke-width:0.22723038" /><path
     d="m 290.21315,-507.25827 c 1.37292,0 2.69268,-0.33016 3.86882,-0.95186 l 2.08302,3.77657 3.3437,-1.84421 -2.49954,-4.53142 c 0.95187,-1.37088 1.46632,-2.99922 1.46632,-4.71117 0,-4.55597 -3.70681,-8.26233 -8.26232,-8.26233 -4.55552,0 -8.26233,3.70636 -8.26233,8.2621 0,4.55574 3.70636,8.26232 8.26233,8.26232 z m 0,-12.70604 c 2.45022,0 4.44394,1.9935 4.44394,4.44372 0,1.17705 -0.47218,2.32434 -1.29589,3.14782 -0.82326,0.82349 -1.97054,1.29567 -3.1476,1.29567 -2.45022,0 -4.44394,-1.99349 -4.44394,-4.44394 0,-2.45046 1.99304,-4.44327 4.44349,-4.44327 z"
     id="path4639"
     inkscape:connector-curvature="0"
     style="stroke-width:0.22723038" /><polygon
     points="65.898,86.685 49.094,86.685 49.094,163.486 81.101,188.38 91.418,175.116 65.898,155.268 "
     id="polygon4641"
     transform="matrix(0.22723038,0,0,0.22723038,253.00691,-523.78269)" /><polygon
     points="62.388,461.326 113.063,512 124.946,500.118 86.152,461.326 108.17,439.309 96.288,427.427 "
     id="polygon4643"
     transform="matrix(0.22723038,0,0,0.22723038,253.00691,-523.78269)" /><polygon
     points="474.06,316.234 474.06,371.859 490.864,371.859 490.864,304.468 457.378,292.279 451.63,308.071 "
     id="polygon4645"
     transform="matrix(0.22723038,0,0,0.22723038,253.00691,-523.78269)" /><path
     d="m 299.74569,-464.69687 c 0,-4.55574 -3.70635,-8.26232 -8.26232,-8.26232 -4.55597,0 -8.26233,3.70635 -8.26233,8.26232 0,4.55597 3.70636,8.26232 8.26233,8.26232 4.55597,0 8.26232,-3.70658 8.26232,-8.26232 z m -12.70604,0 c 0,-2.45023 1.99349,-4.44395 4.44394,-4.44395 2.45046,0 4.44395,1.9935 4.44395,4.44395 0,2.45045 -1.99349,4.44394 -4.44395,4.44394 -2.45045,0 -4.44394,-1.99372 -4.44394,-4.44394 z"
     id="path4647"
     inkscape:connector-curvature="0"
     style="stroke-width:0.22723038" /><path
     d="m 304.82815,-438.01434 c 0,-4.55575 -3.70635,-8.26233 -8.26232,-8.26233 -4.55597,0 -8.26233,3.70636 -8.26233,8.26233 0,4.55597 3.70636,8.26232 8.26233,8.26232 4.55597,0 8.26232,-3.70658 8.26232,-8.26232 z m -12.70581,0 c 0,-2.45023 1.99349,-4.44395 4.44394,-4.44395 2.45046,0 4.44395,1.99349 4.44395,4.44395 0,2.45045 -1.99349,4.44394 -4.44395,4.44394 -2.45045,0 -4.44394,-1.99349 -4.44394,-4.44394 z"
     id="path4649"
     inkscape:connector-curvature="0"
     style="stroke-width:0.22723038" /><path
     d="m 328.33082,-451.35913 c -4.55574,0 -8.26233,3.70636 -8.26233,8.26232 0,4.55597 3.70659,8.26233 8.26233,8.26233 4.55574,0 8.26209,-3.70636 8.26209,-8.26233 0,-4.55596 -3.70635,-8.26232 -8.26209,-8.26232 z m 0,12.70627 c -2.45046,0 -4.44395,-1.99349 -4.44395,-4.44395 0,-2.45045 1.99349,-4.44394 4.44395,-4.44394 2.45022,0 4.44371,1.99349 4.44371,4.44394 0,2.45046 -1.99349,4.44395 -4.44371,4.44395 z"
     id="path4651"
     inkscape:connector-curvature="0"
     style="stroke-width:0.22723038" /><path
     d="m 328.33082,-479.31187 c -4.55574,0 -8.26233,3.70635 -8.26233,8.26209 0,4.55574 3.70659,8.26233 8.26233,8.26233 4.55574,0 8.26209,-3.70636 8.26209,-8.26233 0,-4.55597 -3.70635,-8.26209 -8.26209,-8.26209 z m 0,12.70581 c -2.45046,0 -4.44395,-1.99349 -4.44395,-4.44394 0,-2.45046 1.99349,-4.44372 4.44395,-4.44372 2.45022,0 4.44371,1.99349 4.44371,4.44372 0,2.45022 -1.99349,4.44394 -4.44371,4.44394 z"
     id="path4653"
     inkscape:connector-curvature="0"
     style="stroke-width:0.22723038" /><rect
     x="297.83514"
     y="-479.31323"
     width="5.0822344"
     height="3.8183794"
     id="rect4655"
     style="stroke-width:0.22723038" /><g
     id="g4663"
     transform="matrix(0.22723038,0,0,0.22723038,253.00691,-523.78269)"><rect
       x="208.47301"
       y="296.35901"
       style="fill:#ffffff"
       width="22.365999"
       height="16.804001"
       id="rect4657" /><rect
       x="119.007"
       y="318.72"
       style="fill:#ffffff"
       width="22.365999"
       height="16.804001"
       id="rect4659" /><rect
       x="286.758"
       y="285.17899"
       style="fill:#ffffff"
       width="22.365999"
       height="16.804001"
       id="rect4661" /></g><rect
     x="338.49643"
     y="-464.06494"
     width="5.0826893"
     height="3.8183794"
     id="rect4665"
     style="stroke-width:0.22723038" /><rect
     x="320.70749"
     y="-428.48749"
     style="fill:#ffffff;stroke-width:0.22723038"
     width="5.0822344"
     height="3.8183794"
     id="rect4667" /><g
     id="g4669"
     transform="matrix(0.22723038,0,0,0.22723038,6.111507,6.175033)" /><g
     id="g4671"
     transform="matrix(0.22723038,0,0,0.22723038,6.111507,6.175033)" /><g
     id="g4673"
     transform="matrix(0.22723038,0,0,0.22723038,6.111507,6.175033)" /><g
     id="g4675"
     transform="matrix(0.22723038,0,0,0.22723038,6.111507,6.175033)" /><g
     id="g4677"
     transform="matrix(0.22723038,0,0,0.22723038,6.111507,6.175033)" /><g
     id="g4679"
     transform="matrix(0.22723038,0,0,0.22723038,6.111507,6.175033)" /><g
     id="g4681"
     transform="matrix(0.22723038,0,0,0.22723038,6.111507,6.175033)" /><g
     id="g4683"
     transform="matrix(0.22723038,0,0,0.22723038,6.111507,6.175033)" /><g
     id="g4685"
     transform="matrix(0.22723038,0,0,0.22723038,6.111507,6.175033)" /><g
     id="g4687"
     transform="matrix(0.22723038,0,0,0.22723038,6.111507,6.175033)" /><g
     id="g4689"
     transform="matrix(0.22723038,0,0,0.22723038,6.111507,6.175033)" /><g
     id="g4691"
     transform="matrix(0.22723038,0,0,0.22723038,6.111507,6.175033)" /><g
     id="g4693"
     transform="matrix(0.22723038,0,0,0.22723038,6.111507,6.175033)" /><g
     id="g4695"
     transform="matrix(0.22723038,0,0,0.22723038,6.111507,6.175033)" /><g
     id="g4697"
     transform="matrix(0.22723038,0,0,0.22723038,6.111507,6.175033)" /><text
     id="text4712"
     y="-488.98547"
     x="300.90768"
     style="color:#000000;font-size:10.4962225px;line-height:21.86712837px;letter-spacing:0px;word-spacing:0px;clip-rule:nonzero;display:inline;overflow:visible;visibility:visible;opacity:1;isolation:auto;mix-blend-mode:normal;color-interpolation:sRGB;color-interpolation-filters:linearRGB;solid-color:#000000;solid-opacity:1;fill:#3f525e;fill-opacity:1;fill-rule:nonzero;stroke:none;stroke-width:0.87468517px;stroke-linecap:butt;stroke-linejoin:miter;stroke-miterlimit:4;stroke-dasharray:none;stroke-dashoffset:0;stroke-opacity:1;color-rendering:auto;image-rendering:auto;shape-rendering:auto;text-rendering:auto;enable-background:accumulate"
     xml:space="preserve"><tspan
       style="fill:#3f525e;fill-opacity:1;stroke-width:0.87468517px"
       y="-488.98547"
       x="300.90768"
       id="tspan4710"
       sodipodi:role="line">3.14</tspan></text>
<text
     xml:space="preserve"
     style="color:#000000;font-size:10.4962225px;line-height:21.86712837px;letter-spacing:0px;word-spacing:0px;clip-rule:nonzero;display:inline;overflow:visible;visibility:visible;opacity:1;isolation:auto;mix-blend-mode:normal;color-interpolation:sRGB;color-interpolation-filters:linearRGB;solid-color:#000000;solid-opacity:1;fill:#ffffff;fill-opacity:1;fill-rule:nonzero;stroke:none;stroke-width:0.87468517px;stroke-linecap:butt;stroke-linejoin:miter;stroke-miterlimit:4;stroke-dasharray:none;stroke-dashoffset:0;stroke-opacity:1;color-rendering:auto;image-rendering:auto;shape-rendering:auto;text-rendering:auto;enable-background:accumulate"
     x="300.54138"
     y="-489.35172"
     id="text4708"><tspan
       sodipodi:role="line"
       id="tspan4706"
       x="300.54138"
       y="-489.35172"
       style="fill:#ffffff;fill-opacity:1;stroke-width:0.87468517px">3.14</tspan></text>
<circle
     style="color:#000000;display:inline;overflow:visible;visibility:visible;fill:#cccccc;fill-opacity:1;fill-rule:evenodd;stroke:#000000;stroke-width:3.408;stroke-linecap:butt;stroke-linejoin:miter;stroke-miterlimit:4;stroke-dasharray:none;stroke-dashoffset:0;stroke-opacity:1;marker:none;enable-background:accumulate"
     id="circle4784"
     cx="-89.923698"
     cy="10.017703"
     r="5.9372897"
     transform="scale(-1,1)" /><path
     style="fill:none;fill-rule:evenodd;stroke:#000000;stroke-width:3.408;stroke-linecap:butt;stroke-linejoin:miter;stroke-miterlimit:4;stroke-dasharray:none;stroke-opacity:1"
     d="M 99.750408,49.851655 110.97309,39.875924 110.47432,23.665363"
     id="path4788"
     inkscape:connector-curvature="0" /><path
     inkscape:connector-curvature="0"
     id="path4790"
     d="M 22.875194,52.41976 11.652513,42.444028 12.151284,26.233468"
     style="fill:none;fill-rule:evenodd;stroke:#000000;stroke-width:3.40845561;stroke-linecap:butt;stroke-linejoin:miter;stroke-miterlimit:4;stroke-dasharray:none;stroke-opacity:1" /><path
     style="fill:none;fill-rule:evenodd;stroke:#000000;stroke-width:3.40845561;stroke-linecap:butt;stroke-linejoin:miter;stroke-miterlimit:4;stroke-dasharray:none;stroke-opacity:1"
     d="m 104.82866,73.1194 c 0.99757,0.498787 6.48423,2.493932 6.48423,2.493932 l 1.74574,9.47694"
     id="path4792"
     inkscape:connector-curvature="0" /><path
     style="opacity:1;fill:#e1312a;fill-opacity:1;fill-rule:evenodd;stroke:none;stroke-width:0.22723038px;stroke-linecap:butt;stroke-linejoin:miter;stroke-miterlimit:4;stroke-dasharray:none;stroke-dashoffset:0;stroke-opacity:1;marker:none"
     d="m 28.633834,51.422185 h 71.076584 v 51.872905 c 0.0882,14.46051 -70.371192,14.98955 -71.076584,0 z"
     id="rect4741"
     inkscape:connector-curvature="0"
     sodipodi:nodetypes="ccccc" /><path
     sodipodi:nodetypes="ccccc"
     inkscape:connector-curvature="0"
     id="path4862"
     d="m 28.633834,51.422185 c 0,0 3.16131,1.369063 16.40116,0.04708 -1.164112,11.980648 -5.769545,41.312732 2.134794,61.290645 0,0 -16.569441,0.86829 -18.535954,-9.46482 z"
     style="opacity:1;fill:#800000;fill-opacity:1;fill-rule:evenodd;stroke:none;stroke-width:0.22723038px;stroke-linecap:butt;stroke-linejoin:miter;stroke-miterlimit:4;stroke-dasharray:none;stroke-dashoffset:0;stroke-opacity:1;marker:none" /><path
     style="opacity:1;fill:#686f74;fill-opacity:1;stroke:none;stroke-width:1.36663795;stroke-linecap:round;stroke-linejoin:round;stroke-miterlimit:4;stroke-dasharray:none;stroke-dashoffset:0;stroke-opacity:1"
     d="m 28.595048,47.551147 c 0.0014,-3.672336 0.219366,-5.336808 0.957013,-7.311512 0.703558,-1.883442 1.746865,-3.545469 3.130537,-4.987057 2.087677,-2.175065 4.678724,-3.604499 7.755707,-4.278691 l 0.956647,-0.209609 H 64.17225 86.949548 l 0.95665,0.210149 c 2.87209,0.630924 5.27652,1.877471 7.2225,3.744407 1.85141,1.776199 3.04341,3.631785 3.80282,5.919742 0.66869,2.014757 0.81889,3.255114 0.81889,6.762783 v 2.450296 H 64.17225 28.594108 Z"
     id="path4739"
     inkscape:connector-curvature="0" /><path
     style="opacity:1;fill:#4d4d4d;fill-opacity:1;fill-rule:evenodd;stroke:none;stroke-width:0.22723038px;stroke-linecap:butt;stroke-linejoin:miter;stroke-miterlimit:4;stroke-dasharray:none;stroke-dashoffset:0;stroke-opacity:1;marker:none"
     d="m 28.245797,53.220934 16.789197,-1.751669 c 0.861906,-8.296314 2.203708,-14.723659 4.165933,-21.233091 0,0 -19.376654,-3.90987 -20.082046,11.07968 z"
     id="path4864"
     inkscape:connector-curvature="0"
     sodipodi:nodetypes="ccccc" /><path
     style="fill:none;fill-rule:evenodd;stroke:#000000;stroke-width:3.40845561;stroke-linecap:butt;stroke-linejoin:miter;stroke-miterlimit:4;stroke-dasharray:none;stroke-opacity:1"
     d="M 64,53 V 99.137752"
     id="path4744"
     inkscape:connector-curvature="0" /><path
     style="opacity:1;fill:#dd352e;fill-opacity:1;stroke:none;stroke-width:5.29043007;stroke-linecap:round;stroke-linejoin:round;stroke-miterlimit:4;stroke-dasharray:none;stroke-dashoffset:0;stroke-opacity:1"
     d="m 61.142353,109.43118 c 0.635395,-1.1154 1.73666,-3.0341 2.447255,-4.26378 l 1.291991,-2.23579 2.340017,4.07536 c 1.287007,2.24144 2.340013,4.16014 2.340013,4.26378 0,0.10363 -2.154271,0.18843 -4.787271,0.18843 h -4.787271 z"
     id="path4748"
     inkscape:connector-curvature="0" /><path
     style="opacity:1;fill:#dd352e;fill-opacity:1;stroke:none;stroke-width:1.32260752;stroke-linecap:round;stroke-linejoin:round;stroke-miterlimit:4;stroke-dasharray:none;stroke-dashoffset:0;stroke-opacity:1"
     d="m 59.809102,111.4554 c 0.0376,-0.098 4.986704,-8.70445 5.044853,-8.77297 0.01177,-0.0139 1.102742,1.85102 2.424402,4.14417 1.321663,2.29315 2.480761,4.29832 2.575777,4.45593 l 0.172754,0.28656 h -5.130707 c -4.151951,0 -5.122384,-0.0217 -5.087079,-0.11369 z"
     id="path4750"
     inkscape:connector-curvature="0" /><path
     style="opacity:1;fill:#70777c;fill-opacity:1;stroke:none;stroke-width:3.87399769;stroke-linecap:round;stroke-linejoin:round;stroke-miterlimit:4;stroke-dasharray:none;stroke-dashoffset:0;stroke-opacity:1"
     d="M 57.874224,112.77039 C 59.069523,110.79804 63.748906,98.642591 64,98.091511 c 0.151081,-0.3316 0.80345,2.675979 0.911962,2.743049 0.108509,0.0671 0.600652,0.8479 1.093644,1.7352 0.492992,0.8873 2.126319,3.73428 3.629623,6.32663 l 2.733277,4.71336 h -7.501481 -7.501482 z"
     id="path4762"
     inkscape:connector-curvature="0"
     sodipodi:nodetypes="cccsscccc" /><circle
     style="color:#000000;display:inline;overflow:visible;visibility:visible;fill:#ffffff;fill-rule:evenodd;stroke:#000000;stroke-width:3.40845561;stroke-linecap:butt;stroke-linejoin:miter;stroke-miterlimit:4;stroke-dasharray:none;stroke-dashoffset:0;stroke-opacity:1;marker:none;enable-background:accumulate"
     id="path4764"
     cx="39.703186"
     cy="62.969177"
     r="5.1140823" /><circle
     r="5.1140823"
     cy="78.743309"
     cx="52.948692"
     id="circle4766"
     style="color:#000000;display:inline;overflow:visible;visibility:visible;fill:#ffffff;fill-rule:evenodd;stroke:#000000;stroke-width:3.40845561;stroke-linecap:butt;stroke-linejoin:miter;stroke-miterlimit:4;stroke-dasharray:none;stroke-dashoffset:0;stroke-opacity:1;marker:none;enable-background:accumulate" /><circle
     style="color:#000000;display:inline;overflow:visible;visibility:visible;fill:#ffffff;fill-rule:evenodd;stroke:#000000;stroke-width:3.40845561;stroke-linecap:butt;stroke-linejoin:miter;stroke-miterlimit:4;stroke-dasharray:none;stroke-dashoffset:0;stroke-opacity:1;marker:none;enable-background:accumulate"
     id="circle4768"
     cx="40.193069"
     cy="97.12291"
     r="5.1140823" /><circle
     r="5.1140823"
     cy="62.499611"
     cx="85.27977"
     id="circle4770"
     style="color:#000000;display:inline;overflow:visible;visibility:visible;fill:#ffffff;fill-rule:evenodd;stroke:#000000;stroke-width:3.40845561;stroke-linecap:butt;stroke-linejoin:miter;stroke-miterlimit:4;stroke-dasharray:none;stroke-dashoffset:0;stroke-opacity:1;marker:none;enable-background:accumulate" /><circle
     style="color:#000000;display:inline;overflow:visible;visibility:visible;fill:#ffffff;fill-rule:evenodd;stroke:#000000;stroke-width:3.40845561;stroke-linecap:butt;stroke-linejoin:miter;stroke-miterlimit:4;stroke-dasharray:none;stroke-dashoffset:0;stroke-opacity:1;marker:none;enable-background:accumulate"
     id="circle4772"
     cx="76.99054"
     cy="82.83847"
     r="5.1140823" /><circle
     style="color:#000000;display:inline;overflow:visible;visibility:visible;fill:#ffffff;fill-rule:evenodd;stroke:#000000;stroke-width:3.40845561;stroke-linecap:butt;stroke-linejoin:miter;stroke-miterlimit:4;stroke-dasharray:none;stroke-dashoffset:0;stroke-opacity:1;marker:none;enable-background:accumulate"
     id="circle4774"
     cx="86.21981"
     cy="99.944481"
     r="5.1140823" /><circle
     r="5.8343887"
     cy="10.790874"
     cx="39.212124"
     id="circle4776"
     style="color:#000000;display:inline;overflow:visible;visibility:visible;fill:#cccccc;fill-opacity:1;fill-rule:evenodd;stroke:#000000;stroke-width:3.408;stroke-linecap:butt;stroke-linejoin:miter;stroke-miterlimit:4;stroke-dasharray:none;stroke-dashoffset:0;stroke-opacity:1;marker:none;enable-background:accumulate" /><path
     style="fill:none;fill-rule:evenodd;stroke:#000000;stroke-width:3.40845561;stroke-linecap:butt;stroke-linejoin:miter;stroke-miterlimit:4;stroke-dasharray:none;stroke-opacity:1"
     d="m 41.545596,16.330703 c 0.352696,0.881738 3.924273,9.049052 3.924273,9.049052"
     id="path4782"
     inkscape:connector-curvature="0"
     sodipodi:nodetypes="cc" /><path
     sodipodi:nodetypes="cc"
     inkscape:connector-curvature="0"
     id="path4786"
     d="m 87.460352,15.557534 c -0.352695,0.881738 -3.924273,9.049052 -3.924273,9.049052"
     style="fill:none;fill-rule:evenodd;stroke:#000000;stroke-width:3.40845561;stroke-linecap:butt;stroke-linejoin:miter;stroke-miterlimit:4;stroke-dasharray:none;stroke-opacity:1" /><path
     style="fill:#686f74;fill-rule:evenodd;stroke:#000000;stroke-width:3.40845561;stroke-linecap:butt;stroke-linejoin:miter;stroke-miterlimit:4;stroke-dasharray:none;stroke-opacity:1;fill-opacity:1"
     d="M 56,113.44587 64,96 l 8.368506,17.60975"
     id="path4746"
     inkscape:connector-curvature="0"
     sodipodi:nodetypes="ccc" /><path
     inkscape:connector-curvature="0"
     id="path4794"
     d="m 27.483533,73.692646 c -0.997564,0.49879 -9.502444,4.140232 -9.502444,4.140232 l -3.392045,14.690241"
     style="fill:none;fill-rule:evenodd;stroke:#000000;stroke-width:3.40845561;stroke-linecap:butt;stroke-linejoin:miter;stroke-miterlimit:4;stroke-dasharray:none;stroke-opacity:1"
     sodipodi:nodetypes="ccc" /><path
     style="fill:none;fill-rule:evenodd;stroke:#000000;stroke-width:3.40845561;stroke-linecap:butt;stroke-linejoin:miter;stroke-miterlimit:4;stroke-dasharray:none;stroke-opacity:1"
     d="m 99.972061,104.7932 12.315829,7.58624 -7.18705,12.99601"
     id="path4796"
     inkscape:connector-curvature="0"
     sodipodi:nodetypes="ccc" /><path
     sodipodi:nodetypes="ccc"
     inkscape:connector-curvature="0"
     id="path4798"
     d="m 24.324005,126.13284 -8.143427,-14.04089 10.090485,-5.91552"
     style="fill:none;fill-rule:evenodd;stroke:#000000;stroke-width:3.40845561;stroke-linecap:butt;stroke-linejoin:miter;stroke-miterlimit:4;stroke-dasharray:none;stroke-opacity:1" /><text
     xml:space="preserve"
     style="color:#000000;font-style:normal;font-variant:normal;font-weight:normal;font-stretch:normal;font-size:16.01404762px;line-height:33.36259842px;font-family:'Fira Code';-inkscape-font-specification:'Fira Code';letter-spacing:0px;word-spacing:0px;clip-rule:nonzero;display:inline;overflow:visible;visibility:visible;opacity:1;isolation:auto;mix-blend-mode:normal;color-interpolation:sRGB;color-interpolation-filters:linearRGB;solid-color:#000000;solid-opacity:1;fill:#ffffff;fill-opacity:1;fill-rule:nonzero;stroke:none;stroke-width:1.33450401px;stroke-linecap:butt;stroke-linejoin:miter;stroke-miterlimit:4;stroke-dasharray:none;stroke-dashoffset:0;stroke-opacity:1;color-rendering:auto;image-rendering:auto;shape-rendering:auto;text-rendering:auto;enable-background:accumulate"
     x="34.732609"
     y="47.328892"
     id="text4842"><tspan
       sodipodi:role="line"
       id="tspan4840"
       x="34.732609"
       y="47.328892"
       style="font-style:normal;font-variant:normal;font-weight:normal;font-stretch:normal;font-family:'Fira Code';-inkscape-font-specification:'Fira Code';fill:#ffffff;fill-opacity:1;stroke-width:1.33450401px">6.022</tspan></text>
<text
     id="text4846"
     y="42.378975"
     x="82.344902"
     style="color:#000000;font-style:normal;font-variant:normal;font-weight:normal;font-stretch:normal;font-size:8.94273853px;line-height:18.63070679px;font-family:'Fira Code';-inkscape-font-specification:'Fira Code';letter-spacing:0px;word-spacing:0px;clip-rule:nonzero;display:inline;overflow:visible;visibility:visible;opacity:1;isolation:auto;mix-blend-mode:normal;color-interpolation:sRGB;color-interpolation-filters:linearRGB;solid-color:#000000;solid-opacity:1;fill:#ffffff;fill-opacity:1;fill-rule:nonzero;stroke:none;stroke-width:0.74522829px;stroke-linecap:butt;stroke-linejoin:miter;stroke-miterlimit:4;stroke-dasharray:none;stroke-dashoffset:0;stroke-opacity:1;color-rendering:auto;image-rendering:auto;shape-rendering:auto;text-rendering:auto;enable-background:accumulate"
     xml:space="preserve"><tspan
       style="font-style:normal;font-variant:normal;font-weight:normal;font-stretch:normal;font-family:'Fira Code';-inkscape-font-specification:'Fira Code';fill:#ffffff;fill-opacity:1;stroke-width:0.74522829px"
       y="42.378975"
       x="82.344902"
       id="tspan4844"
       sodipodi:role="line">23</tspan></text>
<text
     xml:space="preserve"
     style="color:#000000;font-style:normal;font-variant:normal;font-weight:normal;font-stretch:normal;font-size:3.47659349px;line-height:7.24290371px;font-family:'Fira Code';-inkscape-font-specification:'Fira Code';letter-spacing:0px;word-spacing:0px;clip-rule:nonzero;display:inline;overflow:visible;visibility:visible;opacity:1;isolation:auto;mix-blend-mode:normal;color-interpolation:sRGB;color-interpolation-filters:linearRGB;solid-color:#000000;solid-opacity:1;fill:#ffffff;fill-opacity:1;fill-rule:nonzero;stroke:none;stroke-width:0.28971615px;stroke-linecap:butt;stroke-linejoin:miter;stroke-miterlimit:4;stroke-dasharray:none;stroke-dashoffset:0;stroke-opacity:1;color-rendering:auto;image-rendering:auto;shape-rendering:auto;text-rendering:auto;enable-background:accumulate"
     x="71.729958"
     y="34.43692"
     id="text4860"><tspan
       sodipodi:role="line"
       id="tspan4858"
       x="71.729958"
       y="34.43692"
       style="font-style:normal;font-variant:normal;font-weight:normal;font-stretch:normal;font-family:'Fira Code';-inkscape-font-specification:'Fira Code';fill:#ffffff;fill-opacity:1;stroke-width:0.28971615px">DEG</tspan></text>
<path
     style="fill:none;fill-rule:evenodd;stroke:#000000;stroke-width:3.40845561;stroke-linecap:butt;stroke-linejoin:miter;stroke-miterlimit:4;stroke-dasharray:none;stroke-opacity:1"
     d="M 28.633834,51.422187 H 99.272638"
     id="path4716"
     inkscape:connector-curvature="0"
     sodipodi:nodetypes="cc" /><path
     style="opacity:1;fill:none;fill-opacity:1;fill-rule:evenodd;stroke:#000000;stroke-width:3.40845561;stroke-linecap:butt;stroke-linejoin:miter;stroke-miterlimit:4;stroke-dasharray:none;stroke-dashoffset:0;stroke-opacity:1;marker:none"
     d="m 43.739571,29.405422 h 40.520864 c 8.803513,0 15.890825,7.087313 15.890825,15.890838 v 52.159812 c 0,8.803518 -7.087312,15.890838 -15.890825,15.890838 H 43.739571 c -8.803522,0 -15.890836,-7.08732 -15.890836,-15.890838 V 45.29626 c 0,-8.803525 7.087314,-15.890838 15.890836,-15.890838 z"
     id="rect4714"
     inkscape:connector-curvature="0" /><text
     xml:space="preserve"
     style="color:#000000;font-style:normal;font-variant:normal;font-weight:normal;font-stretch:normal;font-size:114.27888489px;line-height:238.08100891px;font-family:'Bitstream Vera Sans';-inkscape-font-specification:'Bitstream Vera Sans';letter-spacing:0px;word-spacing:0px;clip-rule:nonzero;display:inline;overflow:visible;visibility:visible;opacity:1;isolation:auto;mix-blend-mode:normal;color-interpolation:sRGB;color-interpolation-filters:linearRGB;solid-color:#000000;solid-opacity:1;fill:#000000;fill-opacity:1;fill-rule:nonzero;stroke:none;stroke-width:9.52324104px;stroke-linecap:butt;stroke-linejoin:miter;stroke-miterlimit:4;stroke-dasharray:none;stroke-dashoffset:0;stroke-opacity:1;color-rendering:auto;image-rendering:auto;shape-rendering:auto;text-rendering:auto;enable-background:accumulate"
     x="179.98509"
     y="108.34184"
     id="text4889"><tspan
       sodipodi:role="line"
       id="tspan4887"
       x="179.98509"
       y="108.34184"
       style="font-style:normal;font-variant:normal;font-weight:normal;font-stretch:normal;font-family:NimbusSans;-inkscape-font-specification:NimbusSans;stroke-width:9.52324104px">insect.io</tspan></text>
</svg>